HIERARCHY
ROOT Hips
{
    OFFSET 0.000000 0.000000 0.000000
    CHANNELS 6 Xposition Yposition Zposition Zrotation Xrotation Yrotation
    JOINT Spine
    {
        OFFSET -0.000000 8.267054 0.000000
        CHANNELS 3 Zrotation Xrotation Yrotation
        JOINT Spine1
        {
            OFFSET -0.000000 23.684998 0.000000
            CHANNELS 3 Zrotation Xrotation Yrotation
            JOINT Neck
            {
                OFFSET -0.000000 23.587730 2.144339
                CHANNELS 3 Zrotation Xrotation Yrotation
                JOINT Head
                {
                    OFFSET -0.000000 14.114483 -2.016355
                    CHANNELS 3 Zrotation Xrotation Yrotation
                    End Site
                    {
                        OFFSET -0.000000 25.204432 0.000000
                    }
                }
            }
            JOINT LeftShoulder
            {
                OFFSET 4.070090 22.062094 -0.247321
                CHANNELS 3 Zrotation Xrotation Yrotation
                JOINT LeftArm
                {
                    OFFSET 10.395479 0.000000 0.000000
                    CHANNELS 3 Zrotation Xrotation Yrotation
                    JOINT LeftForeArm
                    {
                        OFFSET 37.713577 0.000000 0.000000
                        CHANNELS 3 Zrotation Xrotation Yrotation
                        JOINT LeftHand
                        {
                            OFFSET 20.284107 0.000000 0.000000
                            CHANNELS 3 Zrotation Xrotation Yrotation
                            End Site
                            {
                                OFFSET 15.122660 0.000000 0.000000
                            }
                        }
                    }
                }
            }
            JOINT RightShoulder
            {
                OFFSET -3.979272 22.062094 -0.247321
                CHANNELS 3 Zrotation Xrotation Yrotation
                JOINT RightArm
                {
                    OFFSET -10.395479 0.000000 0.000000
                    CHANNELS 3 Zrotation Xrotation Yrotation
                    JOINT RightForeArm
                    {
                        OFFSET -37.713577 0.000000 0.000000
                        CHANNELS 3 Zrotation Xrotation Yrotation
                        JOINT RightHand
                        {
                            OFFSET -20.284107 0.000000 0.000000
                            CHANNELS 3 Zrotation Xrotation Yrotation
                            End Site
                            {
                                OFFSET -15.122660 0.000000 0.000000
                            }
                        }
                    }
                }
            }
        }
    }
    JOINT LeftUpLeg
    {
        OFFSET 10.081773 0.000000 0.000000
        CHANNELS 3 Zrotation Xrotation Yrotation
        JOINT LeftLeg
        {
            OFFSET -0.000000 -36.382099 0.000000
            CHANNELS 3 Zrotation Xrotation Yrotation
            JOINT LeftFoot
            {
                OFFSET -0.000000 -49.182560 0.000000
                CHANNELS 3 Zrotation Xrotation Yrotation
                JOINT LeftToeBase
                {
                    OFFSET -0.000000 -6.553152 15.122660
                    CHANNELS 3 Zrotation Xrotation Yrotation
                    End Site
                    {
                        OFFSET -0.000000 0.000000 4.032709
                    }
                }
            }
        }
    }
    JOINT RightUpLeg
    {
        OFFSET -10.081773 0.000000 0.000000
        CHANNELS 3 Zrotation Xrotation Yrotation
        JOINT RightLeg
        {
            OFFSET -0.000000 -36.382099 0.000000
            CHANNELS 3 Zrotation Xrotation Yrotation
            JOINT RightFoot
            {
                OFFSET -0.000000 -49.182560 0.000000
                CHANNELS 3 Zrotation Xrotation Yrotation
                JOINT RightToeBase
                {
                    OFFSET -0.000000 -6.553152 15.122660
                    CHANNELS 3 Zrotation Xrotation Yrotation
                    End Site
                    {
                        OFFSET -0.000000 0.000000 4.032709
                    }
                }
            }
        }
    }
}
MOTION
Frames:    13
Frame Time:    0.008333
-36.358280    94.047707    -131.904739    1.343489    1.163484    3.270033    -1.122450    -7.624453    -0.616657    -1.111181    -1.870469    -0.559991    -2.769700    23.345861    -14.208894    15.441090    9.230599    -14.075687    19.143484    -6.538084    -10.482270    -30.421095    54.845364    10.044930    5.413685    -24.675880    -6.842553    13.911184    -22.904099    13.158550    -14.176311    -2.847417    0.866078    22.142281    2.551321    0.252464    -1.945442    1.277415    -2.587480    -9.910906    1.454150    -2.544683    2.013062    -4.153717    -1.419719    1.654495    13.369342    8.049043    -4.207367    -8.375885    -6.654192    0.000000    0.000000    0.000000    -4.422465    -0.519484    2.705970    1.201299    9.346758    -2.433913    3.095520    -8.582524    -7.089286    0.000000    0.000000    0.000000    
-36.365414    94.047623    -131.914124    1.336571    1.165249    3.286127    -1.121987    -7.623771    -0.616078    -1.106241    -1.874143    -0.559393    -2.771987    23.327812    -14.216991    15.459629    9.234145    -14.083254    19.141930    -6.536094    -10.476787    -29.897190    53.535667    9.444655    4.763874    -24.020021    -7.011488    15.209303    -22.165037    12.862570    -14.182027    -2.844796    0.849382    22.143652    2.535761    0.247460    -1.928430    1.282734    -2.587550    -9.944759    1.457906    -2.514483    2.031964    -4.185472    -1.433236    1.642339    13.403000    8.054217    -4.219836    -8.372046    -6.671688    0.000000    0.000000    0.000000    -4.410945    -0.539596    2.692988    1.203195    9.373221    -2.409508    3.059939    -8.585101    -7.117488    0.000000    0.000000    0.000000    
-36.372749    94.047508    -131.923386    1.329497    1.166697    3.301890    -1.121673    -7.623040    -0.615960    -1.101067    -1.876940    -0.559211    -2.773747    23.309187    -14.224594    15.476548    9.238056    -14.090385    19.140053    -6.533709    -10.470662    -29.417557    52.235596    8.890082    4.142389    -23.374937    -7.144743    16.431143    -21.456186    12.533387    -14.187405    -2.842457    0.833856    22.145468    2.522357    0.242438    -1.914415    1.287444    -2.586473    -9.974799    1.461137    -2.485681    2.051019    -4.217313    -1.446283    1.630427    13.437561    8.059002    -4.231956    -8.368561    -6.689007    0.000000    0.000000    0.000000    -4.399243    -0.560027    2.681434    1.205854    9.400873    -2.390262    3.026719    -8.587477    -7.142997    0.000000    0.000000    0.000000    
-36.380798    94.047279    -131.932922    1.321840    1.167743    3.317812    -1.122344    -7.623302    -0.617274    -1.093751    -1.876742    -0.560358    -2.776273    23.289261    -14.230712    15.492242    9.241138    -14.095917    19.136766    -6.530750    -10.462006    -28.958998    50.887341    8.355770    3.532736    -22.714928    -7.245407    17.610264    -20.750273    12.163337    -14.193273    -2.841031    0.821727    22.148005    2.511242    0.236341    -1.904043    1.291822    -2.582731    -10.001231    1.464079    -2.459127    2.071222    -4.251296    -1.459309    1.618396    13.475949    8.063285    -4.244618    -8.365564    -6.706645    0.000000    0.000000    0.000000    -4.386770    -0.582439    2.670096    1.209316    9.432260    -2.370448    2.993565    -8.590192    -7.169777    0.000000    0.000000    0.000000    
-36.389378    94.046906    -131.942368    1.314000    1.168027    3.332984    -1.124163    -7.624237    -0.619922    -1.084476    -1.873067    -0.562803    -2.779812    23.269213    -14.234722    15.506424    9.242462    -14.099147    19.131668    -6.527453    -10.451618    -28.540335    49.551426    7.864791    2.970126    -22.071865    -7.307654    18.682322    -20.080954    11.775683    -14.199297    -2.840227    0.813518    22.151054    2.502806    0.230000    -1.897922    1.296535    -2.576055    -10.022840    1.467539    -2.436466    2.091872    -4.286318    -1.472363    1.606322    13.517643    8.067910    -4.257216    -8.363368    -6.723939    0.000000    0.000000    0.000000    -4.373787    -0.606603    2.657150    1.212404    9.467817    -2.346041    2.960852    -8.593948    -7.197971    0.000000    0.000000    0.000000    
-36.398834    94.046318    -131.951935    1.305678    1.167139    3.347591    -1.125839    -7.623985    -0.622897    -1.075720    -1.867842    -0.565410    -2.781482    23.249104    -14.237927    15.518488    9.241632    -14.101235    19.126802    -6.523637    -10.440972    -28.151506    48.206146    7.404825    2.447939    -21.436054    -7.334602    19.666561    -19.436018    11.370763    -14.204260    -2.838504    0.805303    22.154583    2.497195    0.225242    -1.895691    1.302935    -2.566137    -10.040732    1.472730    -2.416196    2.113727    -4.322989    -1.485969    1.593771    13.564173    8.073269    -4.270327    -8.362396    -6.741075    0.000000    0.000000    0.000000    -4.360088    -0.633558    2.640557    1.215717    9.510077    -2.314383    2.927006    -8.599879    -7.229142    0.000000    0.000000    0.000000    
-36.409180    94.045479    -131.961487    1.296966    1.164708    3.361316    -1.127454    -7.621425    -0.625565    -1.067358    -1.862152    -0.567858    -2.781806    23.230526    -14.240286    15.529416    9.237511    -14.102015    19.121996    -6.519261    -10.431082    -27.795134    46.871376    6.979277    1.973594    -20.816940    -7.328352    20.554768    -18.822693    10.959752    -14.208431    -2.835145    0.795960    22.158585    2.493949    0.222799    -1.896367    1.311518    -2.553106    -10.057180    1.480201    -2.397020    2.136517    -4.360724    -1.499752    1.581113    13.615398    8.079357    -4.283914    -8.362776    -6.758013    0.000000    0.000000    0.000000    -4.346261    -0.661991    2.627730    1.221463    9.557421    -2.283460    2.891677    -8.608031    -7.263150    0.000000    0.000000    0.000000    
-36.420666    94.044365    -131.971252    1.287929    1.160359    3.374213    -1.129047    -7.616096    -0.628103    -1.059791    -1.855557    -0.570184    -2.780785    23.214251    -14.241586    15.540227    9.228349    -14.100965    19.117655    -6.513463    -10.420832    -27.462086    45.528332    6.577538    1.539138    -20.206024    -7.291831    21.367125    -18.230066    10.541749    -14.211244    -2.830168    0.785378    22.162912    2.493021    0.223100    -1.899214    1.322942    -2.536982    -10.074651    1.490468    -2.377582    2.160240    -4.400282    -1.512900    1.568679    13.672881    8.085184    -4.298130    -8.364296    -6.774797    0.000000    0.000000    0.000000    -4.332758    -0.690812    2.630888    1.232912    9.608164    -2.268468    2.854659    -8.617617    -7.297984    0.000000    0.000000    0.000000    
-36.433334    94.042953    -131.981216    1.278715    1.153820    3.386172    -1.131154    -7.607667    -0.630457    -1.052096    -1.847928    -0.572242    -2.779791    23.200933    -14.242068    15.551851    9.214010    -14.098373    19.112585    -6.505757    -10.409846    -27.149961    44.180172    6.197447    1.144090    -19.604649    -7.228467    22.111107    -17.657375    10.120670    -14.213556    -2.823702    0.773592    22.168003    2.494766    0.225870    -1.903581    1.337303    -2.517494    -10.095126    1.503664    -2.357546    2.184794    -4.441856    -1.525350    1.556432    13.737443    8.089973    -4.312737    -8.367215    -6.790617    0.000000    0.000000    0.000000    -4.320606    -0.719453    2.658644    1.252926    9.661391    -2.276211    2.815082    -8.628875    -7.334686    0.000000    0.000000    0.000000    
-36.446987    94.041298    -131.991394    1.269871    1.145121    3.396994    -1.133479    -7.596097    -0.632432    -1.045931    -1.839169    -0.574020    -2.777869    23.191427    -14.242271    15.564160    9.194471    -14.094744    19.108334    -6.495955    -10.398012    -26.861416    42.844379    5.841053    0.791606    -19.019632    -7.141993    22.786947    -17.109303    9.702331    -14.213948    -2.815691    0.761446    22.173433    2.498497    0.230359    -1.909389    1.354198    -2.494533    -10.118947    1.519592    -2.337300    2.209255    -4.485405    -1.536024    1.544995    13.809208    8.093035    -4.327798    -8.371181    -6.805506    0.000000    0.000000    0.000000    -4.311505    -0.748504    2.714662    1.283570    9.717628    -2.304485    2.772307    -8.642233    -7.378002    0.000000    0.000000    0.000000    
-36.461525    94.039444    -132.001816    1.261620    1.134361    3.406847    -1.135975    -7.581259    -0.634201    -1.041587    -1.829597    -0.575509    -2.775330    23.184610    -14.242592    15.576764    9.172194    -14.090889    19.104702    -6.484186    -10.384482    -26.595675    41.530678    5.507192    0.481482    -18.453787    -7.036754    23.400028    -16.587072    9.288708    -14.212585    -2.806400    0.748831    22.179605    2.503985    0.236557    -1.916618    1.373120    -2.468046    -10.146274    1.537485    -2.317304    2.233312    -4.531562    -1.544113    1.534479    13.888775    8.093763    -4.342825    -8.375732    -6.819603    0.000000    0.000000    0.000000    -4.306674    -0.778557    2.804591    1.327716    9.777960    -2.356242    2.726360    -8.658169    -7.431698    0.000000    0.000000    0.000000    
-36.477547    94.037384    -132.013062    1.253472    1.121401    3.416294    -1.138470    -7.562540    -0.635754    -1.039021    -1.819304    -0.577041    -2.772444    23.181299    -14.242895    15.590640    9.145921    -14.086432    19.101267    -6.468846    -10.368744    -26.341412    40.190376    5.181753    0.199689    -17.885502    -6.912399    23.979563    -16.070103    8.862866    -14.209821    -2.795293    0.735826    22.187347    2.511121    0.244081    -1.925820    1.393198    -2.436322    -10.177248    1.556827    -2.297817    2.258106    -4.583500    -1.547983    1.524864    13.980710    8.089952    -4.358297    -8.380382    -6.833320    0.000000    0.000000    0.000000    -4.306867    -0.811955    2.939806    1.391260    9.846309    -2.440523    2.673196    -8.677757    -7.501426    0.000000    0.000000    0.000000    
-36.494888    94.035194    -132.025055    1.245470    1.106404    3.425310    -1.140829    -7.539935    -0.637338    -1.038294    -1.808502    -0.578590    -2.769455    23.180656    -14.243217    15.605161    9.117752    -14.081769    19.097984    -6.449118    -10.350680    -26.102942    38.846886    4.869685    -0.048812    -17.324696    -6.774025    24.516544    -15.567461    8.430347    -14.205462    -2.782463    0.722159    22.196463    2.519260    0.253205    -1.937613    1.412569    -2.398580    -10.210114    1.575719    -2.280146    2.283330    -4.641961    -1.546047    1.516917    14.086133    8.078698    -4.374372    -8.385157    -6.845326    0.000000    0.000000    0.000000    -4.309196    -0.848410    3.096702    1.465107    9.922046    -2.542668    2.615204    -8.700148    -7.577757    0.000000    0.000000    0.000000    
